<svg xmlns="http://www.w3.org/2000/svg" viewBox="0 0 160 160" role="img" aria-label="Washing icon">
  <rect width="160" height="160" fill="#ffffff"/>
  <g fill="none" stroke="#000000" stroke-width="6" stroke-linecap="round" stroke-linejoin="round">
    <path d="M57 52h46c7 0 10 4 13 10l11 27 10-4c4-1 8 1 9 5 1 3-1 7-5 8l-10 4 8 11c2 3 3 7 3 11v20c0 3-2 5-5 5h-14c-3 0-5-2-5-5v-9H42v9c0 3-2 5-5 5H23c-3 0-5-2-5-5v-20c0-4 1-8 3-11l8-11-10-4c-4-1-6-5-5-8 1-4 5-6 9-5l10 4 11-27c3-6 6-10 13-10Z"/>
    <path d="M55 63h50c3 0 5 2 7 5l10 25H38l10-25c2-3 4-5 7-5Z"/>
    <circle cx="43" cy="111" r="9"/>
    <circle cx="117" cy="111" r="9"/>
    <path d="M65 121h30"/>
    <path d="M48 132h64"/>
    <path d="M45 22h70"/>
    <path d="M45 22c-5 0-8 3-8 8s3 8 8 8h70c5 0 8-3 8-8s-3-8-8-8"/>
    <path d="M68 22a12 12 0 0 1 24 0"/>
    <path d="M45 47v9"/>
    <path d="M57 47v9"/>
    <path d="M69 47v9"/>
    <path d="M81 47v9"/>
    <path d="M93 47v9"/>
    <path d="M105 47v9"/>
    <path d="M117 47v9"/>
  </g>
</svg>
